# xmcd CD database file
# Copyright (C) 1997 Ti Kan
#
# Track frame offsets:
#  150
#  18995
#  30557
#  45702
#  59200
#  82932
#  103470
#  123282
#  135285
#  158097
#  177785
#  198582
#  209565
#  220295
#  242047
#  254120
#  274227
#  291165
#
# Disc length: 4140 seconds
#
# Revision: 1
# Processed by: cddbd v1.4b41PL1 Copyright (c) Steve Scherf et al.
# Submitted via: CDWizzard Release:4.35
#
DISCID=15102a12
DTITLE=Various Artist - Chicken Ranch Round Up #1
DYEAR=1900
DGENRE=
TTITLE0=Diesel
TTITLE1=A Good Start
TTITLE2=Sinking Ships
TTITLE3=As We Go
TTITLE4=Days Of June
TTITLE5=Whipping Boy
TTITLE6=Paranoid No. 3
TTITLE7=Volleyball In The Mud
TTITLE8=Stupid Retard
TTITLE9=Blue Moon, The Shower Song
TTITLE10=Father
TTITLE11=Reality vs. the American Way
TTITLE12=Wayne, Master of Dumptrucks
TTITLE13=Nude Song
TTITLE14=Ishmail's Conspiracy
TTITLE15=XII
TTITLE16=Arial
TTITLE17=Funky Train
EXTD=
EXTT0=
EXTT1=
EXTT2=
EXTT3=
EXTT4=
EXTT5=
EXTT6=
EXTT7=
EXTT8=
EXTT9=
EXTT10=
EXTT11=
EXTT12=
EXTT13=
EXTT14=
EXTT15=
EXTT16=
EXTT17=
PLAYORDER=
